<?xml version="1.0" standalone="no"?>
<!DOCTYPE svg PUBLIC "-//W3C//DTD SVG 20010904//EN"
 "http://www.w3.org/TR/2001/REC-SVG-20010904/DTD/svg10.dtd">
<svg version="1.0" xmlns="http://www.w3.org/2000/svg"
 width="192.000000pt" height="192.000000pt" viewBox="0 0 192.000000 192.000000"
 preserveAspectRatio="xMidYMid meet">

<g transform="translate(0.000000,192.000000) scale(0.100000,-0.100000)"
fill="#000000" stroke="none">
<path d="M845 1800 c-94 -15 -192 -48 -290 -98 -74 -38 -108 -64 -191 -146
-90 -90 -106 -112 -153 -206 -73 -148 -94 -235 -94 -390 0 -155 21 -242 94
-390 46 -93 63 -116 153 -206 90 -90 113 -107 206 -153 148 -73 235 -94 390
-94 155 0 242 21 390 94 93 46 116 63 206 153 90 90 107 113 153 206 73 148
94 235 94 390 0 155 -21 242 -94 390 -46 93 -63 116 -153 206 -90 90 -113 107
-206 153 -58 28 -140 60 -184 71 -94 24 -238 32 -321 20z m-325 -765 l0 -225
450 0 450 0 0 225 0 225 60 0 60 0 0 -240 c0 -260 -3 -280 -54 -314 -23 -14
-77 -16 -511 -16 -538 0 -528 -1 -559 64 -13 28 -16 72 -16 263 0 126 3 233 7
236 3 4 30 7 60 7 l53 0 0 -225z"/>
</g>
</svg>
