<?xml version="1.0" standalone="no"?>
<!DOCTYPE svg PUBLIC "-//W3C//DTD SVG 20010904//EN"
 "http://www.w3.org/TR/2001/REC-SVG-20010904/DTD/svg10.dtd">
<svg version="1.0" xmlns="http://www.w3.org/2000/svg"
 width="1024.000000pt" height="1024.000000pt" viewBox="0 0 1024.000000 1024.000000"
 preserveAspectRatio="xMidYMid meet">

<g transform="translate(0.000000,1024.000000) scale(0.100000,-0.100000)"
fill="#000000" stroke="none">
<path d="M4835 9629 c-785 -49 -1567 -313 -2225 -752 -231 -154 -420 -308
-634 -517 -390 -380 -671 -765 -907 -1244 -474 -960 -590 -2039 -333 -3089
138 -565 418 -1153 772 -1620 299 -397 698 -774 1102 -1044 424 -283 936 -509
1417 -627 1050 -257 2129 -141 3089 333 479 236 864 517 1244 907 346 355 592
704 811 1148 431 873 566 1840 393 2806 -144 797 -508 1553 -1043 2162 -401
457 -865 813 -1405 1079 -710 350 -1491 507 -2281 458z m-2065 -4134 l0 -1205
2410 0 2410 0 0 1205 0 1205 300 0 300 0 -2 -1277 -3 -1278 -23 -62 c-66 -175
-205 -311 -382 -375 l-65 -23 -2530 0 -2530 0 -72 23 c-88 27 -206 105 -268
175 -53 61 -108 161 -132 243 -16 55 -18 151 -21 1303 -1 685 0 1251 2 1258 4
10 67 13 306 13 l300 0 0 -1205z"/>
</g>
</svg>
